<mxfile host="app.diagrams.net" modified="2023-12-17T13:33:45.136Z" agent="Mozilla/5.0 (Macintosh; Intel Mac OS X 10_15_7) AppleWebKit/605.1.15 (KHTML, like Gecko) Version/17.0 Safari/605.1.15" version="22.1.11" etag="n3TGBhQu_Iqj33EGT7dK" type="github">
  <diagram name="Page-1" id="_vgJvFfnFnzO0Z2q8dCT">
    <mxGraphModel>
      <root>
        <mxCell id="0" />
        <mxCell id="1" parent="0" />
      </root>
    </mxGraphModel>
  </diagram>
</mxfile>
